<svg><symbol viewBox="0 0 6 10" id="txspt-icons-angleArrow"><path clip-rule="evenodd" d="M5.53.47a.75.75 0 010 1.06L2.06 5l3.47 3.47a.75.75 0 01-1.06 1.06l-4-4a.75.75 0 010-1.06l4-4a.75.75 0 011.06 0z"/></symbol><symbol viewBox="0 0 7 8" id="txspt-icons-arrow"><path d="M4.354.854a.5.5 0 00-.708-.708l-3.5 3.5a.5.5 0 000 .708l3.5 3.5a.5.5 0 10.708-.708L1.707 4.5H6.5a.5.5 0 000-1H1.707L4.354.854z"/></symbol><symbol viewBox="0 0 6 6" id="txspt-icons-bullet"><path d="M0 1a1 1 0 011-1h4a1 1 0 011 1v4a1 1 0 01-1 1H1a1 1 0 01-1-1V1z"/></symbol><symbol viewBox="0 0 9 6" id="txspt-icons-checkmark"><path clip-rule="evenodd" d="M8.144.22a.749.749 0 010 1.059L3.775 5.647a.749.749 0 01-1.06 0L.22 3.151a.749.749 0 111.06-1.06L3.245 4.06 7.085.22a.749.749 0 011.059 0z"/></symbol><symbol viewBox="0 0 12 12" id="txspt-icons-drawer"><path clip-rule="evenodd" d="M9 .75A.75.75 0 019.75 0h1.5a.75.75 0 01.75.75v1.5a.75.75 0 01-.75.75h-1.5A.75.75 0 019 2.25V.75zm-4.5 4.5a.75.75 0 01.75-.75h1.5a.75.75 0 01.75.75v1.5a.75.75 0 01-.75.75h-1.5a.75.75 0 01-.75-.75v-1.5zM.75 9a.75.75 0 00-.75.75v1.5c0 .414.336.75.75.75h1.5a.75.75 0 00.75-.75v-1.5A.75.75 0 002.25 9H.75zm0-9A.75.75 0 000 .75v1.5c0 .414.336.75.75.75h1.5A.75.75 0 003 2.25V.75A.75.75 0 002.25 0H.75zm4.5 0a.75.75 0 00-.75.75v1.5c0 .414.336.75.75.75h1.5a.75.75 0 00.75-.75V.75A.75.75 0 006.75 0h-1.5zM0 5.25a.75.75 0 01.75-.75h1.5a.75.75 0 01.75.75v1.5a.75.75 0 01-.75.75H.75A.75.75 0 010 6.75v-1.5zm9.75-.75a.75.75 0 00-.75.75v1.5c0 .414.336.75.75.75h1.5a.75.75 0 00.75-.75v-1.5a.75.75 0 00-.75-.75h-1.5zM4.5 9.75A.75.75 0 015.25 9h1.5a.75.75 0 01.75.75v1.5a.75.75 0 01-.75.75h-1.5a.75.75 0 01-.75-.75v-1.5zM9.75 9a.75.75 0 00-.75.75v1.5c0 .414.336.75.75.75h1.5a.75.75 0 00.75-.75v-1.5a.75.75 0 00-.75-.75h-1.5z"/></symbol><symbol viewBox="0 0 18 18" id="txspt-icons-exit"><path d="M0 2.25A2.25 2.25 0 012.25 0h8.25a2.25 2.25 0 012.25 2.25v4.5a.75.75 0 01-1.5 0v-4.5a.75.75 0 00-.75-.75H2.25a.75.75 0 00-.75.75v13.5c0 .415.335.75.75.75h8.25a.75.75 0 00.75-.75v-4.5a.75.75 0 011.5 0v4.5A2.25 2.25 0 0110.5 18H2.25A2.25 2.25 0 010 15.75V2.25z"/><path d="M4.5 9a.75.75 0 01.75-.75h10.19l-.97-.97a.75.75 0 011.06-1.06l2.25 2.25a.75.75 0 010 1.06l-2.25 2.25a.75.75 0 11-1.06-1.06l.97-.97H5.25A.75.75 0 014.5 9z"/></symbol><symbol viewBox="0 0 20 16" id="txspt-icons-export"><path d="M15.135 3.692c-.72-1.591-2.298-2.752-4.473-2.56C7.375-1.37 2.726.495 1.832 4.596.124 5.83-.31 7.673.202 9.248a4.235 4.235 0 004.048 2.929h2.514a.75.75 0 000-1.5H4.25a2.735 2.735 0 01-2.622-1.893c-.33-1.014-.066-2.253 1.284-3.109a.75.75 0 00.338-.511c.557-3.38 4.28-4.746 6.7-2.68a.75.75 0 00.597.172c1.79-.266 2.947.71 3.364 2.026a.75.75 0 00.777.52C16.613 5.04 18 6.435 18 7.909c0 1.431-1.294 2.704-2.923 2.704h-3.03a.75.75 0 000 1.5h3.03c2.366 0 4.423-1.855 4.423-4.204 0-2.261-1.917-4.142-4.365-4.216z"/><path d="M9.4 5.442a.75.75 0 01.553.236l2.384 2.541a.75.75 0 01-1.094 1.027l-1.088-1.16v7.097a.75.75 0 01-1.5 0V8.126L7.64 9.238a.75.75 0 01-1.108-1.011l2.32-2.541a.75.75 0 01.549-.244z"/></symbol><symbol viewBox="0 0 5 7" id="txspt-icons-fatArrow"><path d="M.262 2.96L3.472.226C4.036-.255 5 .085 5 .765v5.47c0 .68-.964 1.02-1.528.54L.262 4.039a.686.686 0 010-1.078z"/></symbol><symbol viewBox="0 0 33 33" id="txspt-icons-logo"><path d="M0 10.071a9.929 9.929 0 012.928-7.06C4.814 1.12 7.316 0 9.973 0H33v5.157H10.312c-1.3 0-2.678.615-3.609 1.546-.931.934-1.547 2.306-1.547 3.61v8.25c0 2.062-2.057 4.123-4.26 4.46L0 23.16V10.07zm33 12.858a9.93 9.93 0 01-2.928 7.06C28.186 31.88 25.684 33 23.027 33H0v-5.157h22.688c1.3 0 2.678-.615 3.609-1.546.931-.934 1.547-2.306 1.547-3.61v-8.25c0-2.062 2.057-4.122 4.26-4.46L33 9.84v13.09z"/><path d="M19.502 16.395v6.655h3.976V9.95H19.71l-3.21 4.212-3.21-4.212H9.522v13.1H13.5v-6.655l3 3.642 3.003-3.642z"/></symbol><symbol viewBox="0 0 8 8" id="txspt-icons-plus"><path d="M4.313.5a.5.5 0 00-1 0v2.688H.5a.5.5 0 000 1h2.813V7a.5.5 0 001 0V4.187H7a.5.5 0 000-1H4.312V.5z"/></symbol><symbol viewBox="0 0 10 10" id="txspt-icons-search"><path clip-rule="evenodd" d="M3.964 0a3.964 3.964 0 102.24 7.234L8.32 9.168a.6.6 0 10.81-.886L7.083 6.411A3.964 3.964 0 003.964 0zM1.2 3.964a2.764 2.764 0 115.528 0 2.764 2.764 0 01-5.528 0z"/></symbol><symbol viewBox="0 0 8 6" id="txspt-icons-vector"><path d="M1 4.5l3-3 3 3" stroke-width="1.2"/></symbol></svg>