<svg width="12" height="12" fill="none" xmlns="http://www.w3.org/2000/svg">
<path fill-rule="evenodd" clip-rule="evenodd" d="M9 .75A.75.75 0 019.75 0h1.5a.75.75 0 01.75.75v1.5a.75.75 0 01-.75.75h-1.5A.75.75 0 019 2.25V.75zm-4.5 4.5a.75.75 0 01.75-.75h1.5a.75.75 0 01.75.75v1.5a.75.75 0 01-.75.75h-1.5a.75.75 0 01-.75-.75v-1.5zM.75 9a.75.75 0 00-.75.75v1.5c0 .414.336.75.75.75h1.5a.75.75 0 00.75-.75v-1.5A.75.75 0 002.25 9H.75zM.75 0A.75.75 0 000 .75v1.5c0 .414.336.75.75.75h1.5A.75.75 0 003 2.25V.75A.75.75 0 002.25 0H.75zm4.5 0a.75.75 0 00-.75.75v1.5c0 .414.336.75.75.75h1.5a.75.75 0 00.75-.75V.75A.75.75 0 006.75 0h-1.5zM0 5.25a.75.75 0 01.75-.75h1.5a.75.75 0 01.75.75v1.5a.75.75 0 01-.75.75H.75A.75.75 0 010 6.75v-1.5zm9.75-.75a.75.75 0 00-.75.75v1.5c0 .414.336.75.75.75h1.5a.75.75 0 00.75-.75v-1.5a.75.75 0 00-.75-.75h-1.5zM4.5 9.75A.75.75 0 015.25 9h1.5a.75.75 0 01.75.75v1.5a.75.75 0 01-.75.75h-1.5a.75.75 0 01-.75-.75v-1.5zM9.75 9a.75.75 0 00-.75.75v1.5c0 .414.336.75.75.75h1.5a.75.75 0 00.75-.75v-1.5a.75.75 0 00-.75-.75h-1.5z" fill="black"/>
</svg>
